<mxfile host="app.diagrams.net" modified="2023-06-25T10:11:32.699Z" agent="Mozilla/5.0 (Windows NT 10.0; Win64; x64) AppleWebKit/537.36 (KHTML, like Gecko) Chrome/114.0.0.0 Safari/537.36 Edg/114.0.1823.43" version="21.5.0" etag="Rrwp1JS_ZQ7yOE4GSZzb" type="github">
  <diagram name="페이지-1" id="CtEaOpYYor2lhuznoMZZ">
    <mxGraphModel>
      <root>
        <mxCell id="0" />
        <mxCell id="1" parent="0" />
      </root>
    </mxGraphModel>
  </diagram>
</mxfile>
